<svg xmlns="http://www.w3.org/2000/svg" viewBox="134 92 310 420">
  <path fill="#F59E0B" fill-rule="evenodd" d="
    M 159.9 169.3
    L 245.0 111.4
    Q 250.0 108.0 255.7 110.0
    L 331.6 136.4
    Q 342.0 140.0 351.2 146.1
    L 382.5 167.0
    Q 390.0 172.0 394.6 179.7
    L 426.0 232.6
    Q 428.0 236.0 426.7 239.8
    L 419.6 261.3
    Q 418.0 266.0 414.6 262.4
    L 390.1 236.4
    Q 386.0 232.0 380.8 229.0
    L 359.8 216.6
    Q 352.0 212.0 348.2 220.2
    L 322.6 276.0
    Q 318.0 286.0 317.7 297.0
    L 312.0 512.0
    L 150.0 512.0
    L 150.0 188.0
    Q 150.0 176.0 159.9 169.3
    Z
    M 282 171
    A 27 27 0 1 0 282 225
    A 27 27 0 1 0 282 171
    Z"/>
  <path fill="#D97706" d="
    M 394.6 179.7
    L 426.0 232.6
    Q 428.0 236.0 426.7 239.8
    L 419.6 261.3
    Q 418.0 266.0 414.6 262.4
    L 390.1 236.4
    Q 386.0 232.0 380.8 229.0
    L 359.8 216.6
    Z"/>
</svg>
